<svg width="738" height="984" viewBox="0 0 738 984" fill="none" xmlns="http://www.w3.org/2000/svg">
<g filter="url(#filter0_d_7_206)">
<path d="M335.673 488.276H-36.143V735.388H335.673V488.276Z" fill="#DEE8F5"/>
<path opacity="0.55" d="M339.829 484.308H-44.255V547.109H339.829V484.308Z" fill="#C1D8ED"/>
<path d="M405.086 752.723H-105.555V778.346H405.086V752.723Z" fill="#F3F5FD"/>
<path d="M387.171 727.1H-87.641V752.723H387.171V727.1Z" fill="#F3F5FD"/>
<path d="M387.171 745.868H-87.641V752.723H387.171V745.868Z" fill="#DEE8F5"/>
<path d="M405.086 771.491H-105.555V778.346H405.086V771.491Z" fill="#DEE8F5"/>
<path d="M422.212 778.346H-122V803.969H422.212V778.346Z" fill="#F3F5FD"/>
<path d="M422.212 797.114H-122V803.969H422.212V797.114Z" fill="#DEE8F5"/>
<path d="M93.257 507.537H52.167V715.569H93.257V507.537Z" fill="#F3F5FD"/>
<path d="M351.017 507.537H309.927V715.569H351.017V507.537Z" fill="#F3F5FD"/>
<path d="M-63.861 488.276H1.97697V511.882C1.97697 512.673 1.66269 513.432 1.10327 513.991C0.543854 514.551 -0.214886 514.865 -1.00603 514.865H-60.878C-61.6692 514.865 -62.4279 514.551 -62.9873 513.991C-63.5467 513.432 -63.861 512.673 -63.861 511.882V488.276Z" fill="#C1D8ED"/>
<path d="M39.793 488.276H105.631V511.882C105.631 512.673 105.317 513.432 104.757 513.991C104.198 514.551 103.439 514.865 102.648 514.865H42.776C41.9848 514.865 41.2261 514.551 40.6667 513.991C40.1073 513.432 39.793 512.673 39.793 511.882V488.276Z" fill="#C1D8ED"/>
<path d="M297.557 488.276H363.395V511.882C363.395 512.673 363.081 513.432 362.521 513.991C361.962 514.551 361.203 514.865 360.412 514.865H300.537C299.746 514.865 298.987 514.551 298.428 513.991C297.868 513.432 297.554 512.673 297.554 511.882V488.276H297.557Z" fill="#C1D8ED"/>
<path d="M-60.878 708.448H-1.00702C-0.215878 708.448 0.542862 708.762 1.10228 709.322C1.6617 709.881 1.97598 710.64 1.97598 711.431V727.1H-63.861V711.431C-63.861 710.64 -63.5467 709.881 -62.9873 709.322C-62.4279 708.762 -61.6692 708.448 -60.878 708.448Z" fill="#C1D8ED"/>
<path d="M42.776 708.448H102.647C103.438 708.448 104.197 708.762 104.756 709.322C105.316 709.881 105.63 710.64 105.63 711.431V727.1H39.793V711.431C39.793 710.64 40.1073 709.881 40.6667 709.322C41.2261 708.762 41.9848 708.448 42.776 708.448Z" fill="#C1D8ED"/>
<path d="M300.537 708.448H360.408C361.199 708.448 361.958 708.762 362.517 709.322C363.077 709.881 363.391 710.64 363.391 711.431V727.1H297.557V711.431C297.557 710.64 297.871 709.882 298.43 709.323C298.988 708.763 299.746 708.449 300.537 708.448Z" fill="#C1D8ED"/>
<path d="M67.491 526.279C67.491 525.137 66.5651 524.211 65.423 524.211C64.2809 524.211 63.355 525.137 63.355 526.279V696.827C63.355 697.969 64.2809 698.895 65.423 698.895C66.5651 698.895 67.491 697.969 67.491 696.827V526.279Z" fill="#C1D8ED"/>
<path d="M82.069 526.279C82.069 525.137 81.1431 524.211 80.001 524.211C78.8589 524.211 77.933 525.137 77.933 526.279V696.827C77.933 697.969 78.8589 698.895 80.001 698.895C81.1431 698.895 82.069 697.969 82.069 696.827V526.279Z" fill="#C1D8ED"/>
<path d="M250.562 507.537H209.472V715.569H250.562V507.537Z" fill="#F3F5FD"/>
<path d="M197.098 488.276H262.936V511.882C262.936 512.673 262.622 513.432 262.062 513.991C261.503 514.551 260.744 514.865 259.953 514.865H200.081C199.29 514.865 198.531 514.551 197.972 513.991C197.412 513.432 197.098 512.673 197.098 511.882V488.276Z" fill="#C1D8ED"/>
<path d="M200.081 708.448H259.957C260.748 708.448 261.507 708.762 262.066 709.322C262.626 709.881 262.94 710.64 262.94 711.431V727.1H197.098V711.431C197.098 710.64 197.412 709.881 197.972 709.322C198.531 708.762 199.29 708.448 200.081 708.448Z" fill="#C1D8ED"/>
<path d="M224.796 526.279C224.796 525.137 223.87 524.211 222.728 524.211C221.586 524.211 220.66 525.137 220.66 526.279V696.827C220.66 697.969 221.586 698.895 222.728 698.895C223.87 698.895 224.796 697.969 224.796 696.827V526.279Z" fill="#C1D8ED"/>
<path d="M239.373 526.279C239.373 525.137 238.447 524.211 237.305 524.211C236.163 524.211 235.237 525.137 235.237 526.279V696.827C235.237 697.969 236.163 698.895 237.305 698.895C238.447 698.895 239.373 697.969 239.373 696.827V526.279Z" fill="#C1D8ED"/>
<path d="M325.252 526.279C325.252 525.137 324.326 524.211 323.184 524.211C322.042 524.211 321.116 525.137 321.116 526.279V696.827C321.116 697.969 322.042 698.895 323.184 698.895C324.326 698.895 325.252 697.969 325.252 696.827V526.279Z" fill="#C1D8ED"/>
<path d="M339.829 526.279C339.829 525.137 338.903 524.211 337.761 524.211C336.619 524.211 335.693 525.137 335.693 526.279V696.827C335.693 697.969 336.619 698.895 337.761 698.895C338.903 698.895 339.829 697.969 339.829 696.827V526.279Z" fill="#C1D8ED"/>
<path d="M381.357 479.014V494.145C381.357 494.959 381.034 495.739 380.458 496.315C379.883 496.89 379.103 497.214 378.289 497.214H-79.709C-80.523 497.214 -81.3036 496.891 -81.8791 496.315C-82.4547 495.74 -82.778 494.959 -82.778 494.145V479.664C-82.778 478.95 -82.6034 478.246 -82.2692 477.615C-81.9351 476.983 -81.4517 476.443 -80.861 476.041L147.297 320.759C148.024 320.264 148.883 320 149.762 320C150.641 320 151.5 320.264 152.227 320.759L379.436 475.391C380.027 475.792 380.512 476.332 380.846 476.964C381.181 477.595 381.357 478.299 381.357 479.014Z" fill="#DEE8F5"/>
<path d="M320.204 471.677H-20.674C-20.9262 471.677 -21.1716 471.596 -21.3745 471.446C-21.5773 471.296 -21.7268 471.085 -21.801 470.845C-21.8753 470.604 -21.8704 470.345 -21.787 470.107C-21.7037 469.869 -21.5464 469.664 -21.338 469.522L149.098 353.522C149.294 353.389 149.525 353.318 149.762 353.318C149.998 353.318 150.229 353.389 150.425 353.522L320.868 469.522C321.076 469.664 321.234 469.869 321.317 470.107C321.4 470.345 321.405 470.604 321.331 470.845C321.257 471.085 321.107 471.296 320.904 471.446C320.702 471.596 320.456 471.677 320.204 471.677Z" fill="#F3F5FD"/>
</g>
<defs>
<filter id="filter0_d_7_206" x="-307" y="0" width="1044.21" height="983.969" filterUnits="userSpaceOnUse" color-interpolation-filters="sRGB">
<feFlood flood-opacity="0" result="BackgroundImageFix"/>
<feColorMatrix in="SourceAlpha" type="matrix" values="0 0 0 0 0 0 0 0 0 0 0 0 0 0 0 0 0 0 127 0" result="hardAlpha"/>
<feOffset dx="65" dy="-70"/>
<feGaussianBlur stdDeviation="125"/>
<feComposite in2="hardAlpha" operator="out"/>
<feColorMatrix type="matrix" values="0 0 0 0 0 0 0 0 0 0 0 0 0 0 0 0 0 0 0.25 0"/>
<feBlend mode="normal" in2="BackgroundImageFix" result="effect1_dropShadow_7_206"/>
<feBlend mode="normal" in="SourceGraphic" in2="effect1_dropShadow_7_206" result="shape"/>
</filter>
</defs>
</svg>
