<svg width="933" height="343" viewBox="0 0 933 343" fill="none" xmlns="http://www.w3.org/2000/svg">
<path d="M3.83867 33.8902L0.217024 29.7234C5.53369 28.148 10.9595 26.6185 16.3411 25.1755L19.8046 29.3872C14.4767 30.8158 9.11116 32.3329 3.83867 33.8902ZM866.28 280.144C862.653 276.051 858.906 271.929 855.136 267.89L860.311 266.151C864.11 270.226 929.183 337.992 932.843 342.125L866.28 280.144ZM36.0724 25.2485L32.7666 20.9997C38.2691 19.6734 43.8931 18.3931 49.4803 17.1923L52.6237 21.4825C47.0908 22.6668 41.5213 23.9365 36.0724 25.2485ZM843.543 255.787C839.613 251.788 835.563 247.769 831.509 243.846L836.449 241.869C840.545 245.831 844.634 249.888 848.601 253.927L843.543 255.787ZM69.4475 18.0838L66.471 13.7614C72.1419 12.6894 77.9467 11.6635 83.726 10.7147L86.5321 15.0694C80.8092 16.0069 75.0607 17.0215 69.4475 18.0838ZM819.04 232.078C814.832 228.198 810.489 224.299 806.149 220.495L810.836 218.284C815.218 222.126 819.601 226.063 823.857 229.983L819.04 232.078ZM103.86 12.4369L101.23 8.05709C107.09 7.23872 113.059 6.47732 118.968 5.79253L121.432 10.1978C115.574 10.8699 109.665 11.6267 103.86 12.4369ZM792.839 209.107C788.358 205.363 783.744 201.601 779.125 197.925L783.541 195.486C788.205 199.199 792.868 203 797.393 206.782L792.839 209.107ZM139.201 8.34407L136.919 3.9213C142.934 3.36561 149.044 2.87144 155.083 2.45274L157.173 6.88711C151.204 7.30507 145.154 7.7972 139.201 8.34407ZM765.016 186.963C760.253 183.35 755.383 179.741 750.522 176.23L754.647 173.57C759.552 177.116 764.48 180.764 769.291 184.413L765.016 186.963ZM175.347 5.83741L173.44 1.39171C179.565 1.10587 185.797 0.883308 191.965 0.732805L193.683 5.18529C187.578 5.33213 181.408 5.5516 175.347 5.8353L175.347 5.83741ZM735.652 165.739C730.645 162.291 725.519 158.845 720.418 155.498L724.231 152.616C729.387 155.999 734.564 159.48 739.621 162.963L735.652 165.739ZM212.181 4.93706L210.655 0.481305C216.89 0.466362 223.223 0.521284 229.477 0.642513L230.809 5.09638C224.614 4.97477 218.346 4.92133 212.181 4.93706ZM704.842 145.518C699.605 142.245 694.25 138.98 688.924 135.812L692.406 132.732C697.79 135.933 703.2 139.231 708.492 142.539L704.842 145.518ZM249.552 5.66839L248.414 1.21958C254.729 1.48024 261.136 1.81191 267.462 2.20898L268.4 6.64621C262.144 6.2484 255.801 5.91925 249.552 5.66839ZM672.679 126.395C667.23 123.311 661.661 120.24 656.131 117.266L659.269 113.991C664.858 116.996 670.486 120.1 675.992 123.217L672.679 126.395ZM287.337 8.02668L286.594 3.60433C292.959 4.13686 299.419 4.74768 305.797 5.41861L306.335 9.82374C300.025 9.15992 293.633 8.55678 287.337 8.02668ZM639.292 108.434C633.653 105.556 627.894 102.69 622.173 99.9206L624.954 96.4636C630.734 99.2628 636.556 102.157 642.255 105.067L639.292 108.434ZM325.38 12.0296L325.035 7.64775C331.433 8.45533 337.918 9.34248 344.315 10.2864L344.449 14.6391C338.135 13.7061 331.712 12.8263 325.38 12.0296ZM604.791 91.7309C598.984 89.0687 593.054 86.4227 587.165 83.8693L589.576 80.243C595.527 82.823 601.52 85.4962 607.39 88.1876L604.791 91.7309ZM363.541 17.6541L363.605 13.3328C370 14.4098 376.485 15.5705 382.882 16.7811L382.617 21.0678C376.289 19.8675 369.87 18.7187 363.542 17.652L363.541 17.6541ZM569.315 76.3451C563.35 73.9033 557.273 71.4877 551.252 69.1657L553.284 65.3834C559.369 67.7304 565.51 70.171 571.536 72.6426L569.315 76.3451ZM401.666 24.8808L402.133 20.6359C408.521 21.982 414.984 23.4123 421.335 24.8859L420.668 29.0863C414.38 27.6273 407.987 26.2135 401.666 24.8808ZM532.994 62.3342C526.919 60.1326 520.719 57.9554 514.567 55.8639L516.217 51.9429C522.433 54.0584 528.699 56.2553 534.838 58.4825L532.994 62.3342ZM439.606 33.6782L440.47 29.525C446.819 31.1323 453.242 32.827 459.565 34.5626L458.499 38.663C452.245 36.9424 445.887 35.2685 439.606 33.6782ZM495.98 49.7548C490.065 47.8757 484.034 46.0228 478.061 44.25L477.298 44.0232L478.563 39.9799L479.328 40.2071C485.371 42.001 491.457 43.8709 497.436 45.7704L495.98 49.7548Z" fill="#262626"/>
</svg>
