<svg width="348" height="326" viewBox="0 0 348 326" fill="none" xmlns="http://www.w3.org/2000/svg">
<path d="M72.928 44.37C72.928 19.725 60.256 0.0090332 35.9 0.0090332C13.923 0.0090332 0 20.015 0 44.37" fill="#C1D8ED"/>
<path d="M35.9011 0.00500488C60.2341 0.00500488 72.8881 19.689 72.9281 44.298C72.9484 44.4759 72.9578 44.6549 72.9561 44.834V280.491C72.9284 286.334 74.0553 292.125 76.2722 297.532C78.4891 302.938 81.7523 307.853 85.8743 311.995C89.9963 316.137 94.8959 319.423 100.292 321.666C105.688 323.908 111.473 325.063 117.317 325.063C123.16 325.063 128.946 323.908 134.341 321.666C139.737 319.423 144.637 316.137 148.759 311.995C152.881 307.853 156.144 302.938 158.361 297.532C160.578 292.125 161.705 286.334 161.677 280.491H302.967V49.291C302.967 22.905 287.734 1.156 261.348 0L35.9011 0.00500488Z" fill="#D7E8F4"/>
<path d="M117.318 324.85H302.966C308.792 324.85 314.56 323.703 319.943 321.474C325.325 319.244 330.215 315.977 334.335 311.857C338.454 307.738 341.722 302.848 343.951 297.465C346.181 292.083 347.328 286.315 347.328 280.489H161.679C161.703 286.321 160.573 292.101 158.352 297.494C156.131 302.887 152.865 307.787 148.74 311.911C144.616 316.035 139.716 319.302 134.323 321.523C128.93 323.744 123.151 324.874 117.318 324.85Z" fill="#C1D8ED"/>
<path d="M140.791 95.3459L236.023 95.3459C240.318 95.3459 243.799 91.8647 243.799 87.5704C243.799 83.2762 240.318 79.795 236.023 79.795L140.791 79.795C136.497 79.795 133.015 83.2762 133.015 87.5704C133.015 91.8647 136.497 95.3459 140.791 95.3459Z" fill="#FAFBFC"/>
<path d="M263.229 133.211H113.585C111.755 133.211 110.272 134.694 110.272 136.524V136.525C110.272 138.355 111.755 139.838 113.585 139.838H263.229C265.059 139.838 266.542 138.355 266.542 136.525V136.524C266.542 134.694 265.059 133.211 263.229 133.211Z" fill="#FAFBFC"/>
<path d="M263.229 117.297H113.585C111.755 117.297 110.272 118.78 110.272 120.61V120.611C110.272 122.441 111.755 123.924 113.585 123.924H263.229C265.059 123.924 266.542 122.441 266.542 120.611V120.61C266.542 118.78 265.059 117.297 263.229 117.297Z" fill="#FAFBFC"/>
<path d="M263.229 149.124H113.585C111.755 149.124 110.272 150.607 110.272 152.437V152.438C110.272 154.268 111.755 155.751 113.585 155.751H263.229C265.059 155.751 266.542 154.268 266.542 152.438V152.437C266.542 150.607 265.059 149.124 263.229 149.124Z" fill="#FAFBFC"/>
<path d="M263.229 165.038H113.585C111.755 165.038 110.272 166.521 110.272 168.351V168.352C110.272 170.182 111.755 171.665 113.585 171.665H263.229C265.059 171.665 266.542 170.182 266.542 168.352V168.351C266.542 166.521 265.059 165.038 263.229 165.038Z" fill="#FAFBFC"/>
<path d="M263.229 180.952H113.585C111.755 180.952 110.272 182.435 110.272 184.265V184.266C110.272 186.096 111.755 187.579 113.585 187.579H263.229C265.059 187.579 266.542 186.096 266.542 184.266V184.265C266.542 182.435 265.059 180.952 263.229 180.952Z" fill="#FAFBFC"/>
<path d="M263.229 212.78H113.585C111.755 212.78 110.272 214.263 110.272 216.093V216.094C110.272 217.924 111.755 219.407 113.585 219.407H263.229C265.059 219.407 266.542 217.924 266.542 216.094V216.093C266.542 214.263 265.059 212.78 263.229 212.78Z" fill="#FAFBFC"/>
<path d="M263.229 196.866H113.585C111.755 196.866 110.272 198.349 110.272 200.179V200.18C110.272 202.01 111.755 203.493 113.585 203.493H263.229C265.059 203.493 266.542 202.01 266.542 200.18V200.179C266.542 198.349 265.059 196.866 263.229 196.866Z" fill="#FAFBFC"/>
<path d="M218.227 228.693H158.587C156.757 228.693 155.274 230.176 155.274 232.006V232.007C155.274 233.837 156.757 235.32 158.587 235.32H218.227C220.057 235.32 221.54 233.837 221.54 232.007V232.006C221.54 230.176 220.057 228.693 218.227 228.693Z" fill="#FAFBFC"/>
</svg>
